<svg xmlns="http://www.w3.org/2000/svg" width="130.44" height="85.26" viewBox="0 0 130.44 85.26">
  <defs>
    <style>
      .cls-1 {
        fill: #cdcdcd;
      }
    </style>
  </defs>
  <path id="路径_441" data-name="路径 441" class="cls-1" d="M13.044,58.263H14.8a.87.87,0,0,1,.852.87A.856.856,0,0,1,14.8,60H13.044v1.757a.87.87,0,0,1-.87.852.856.856,0,0,1-.87-.852V60H9.548a.87.87,0,0,1-.852-.87.856.856,0,0,1,.852-.87H11.3V56.506a.87.87,0,0,1,.87-.852.856.856,0,0,1,.87.852v1.757Zm114.787-6.957V49.55a.856.856,0,0,0-.869-.852.87.87,0,0,0-.87.852v1.756h-1.757a.856.856,0,0,0-.852.87.871.871,0,0,0,.852.87h1.757V54.8a.856.856,0,0,0,.87.852.87.87,0,0,0,.87-.852V53.045h1.757a.856.856,0,0,0,.852-.87.87.87,0,0,0-.852-.87h-1.757ZM64.649,80H20.865a1.739,1.739,0,0,1,0-3.478h7.887a6.911,6.911,0,0,1-.925-3.47V22.6a6.952,6.952,0,0,1,6.964-6.948H40V13.9a6.952,6.952,0,0,1,6.964-6.948H88.692A6.948,6.948,0,0,1,95.656,13.9V64.359a6.914,6.914,0,0,1-.927,3.47h9.621a1.739,1.739,0,1,1,0,3.478H83.481v1.748a6.915,6.915,0,0,1-.927,3.47h.932a1.739,1.739,0,0,1,0,3.478h-9.15a3.479,3.479,0,0,1-5.452,4.235Zm6.358-3.478h5.531A3.468,3.468,0,0,0,80,73.038V22.519a3.368,3.368,0,0,0-3.357-3.388H34.662a3.372,3.372,0,0,0-3.357,3.388V73.038a3.485,3.485,0,0,0,3.463,3.487h26.4l-.894-.9a3.471,3.471,0,0,1-.9-3.362l-1.642-1.644a12.195,12.195,0,1,1,2.459-2.459l1.644,1.644a3.466,3.466,0,0,1,3.362.9l5.814,5.814Zm12.474-8.7h5.233a3.48,3.48,0,0,0,3.463-3.478V13.914a3.467,3.467,0,0,0-3.463-3.478H46.941a3.48,3.48,0,0,0-3.461,3.478v1.739H76.518A6.948,6.948,0,0,1,83.481,22.6ZM22.175,3.913h2.591a1.3,1.3,0,1,1,0,2.609H22.175V9.113a1.3,1.3,0,1,1-2.609,0V6.522H16.974a1.3,1.3,0,1,1,0-2.609h2.591V1.322a1.3,1.3,0,1,1,2.609,0V3.913ZM1.739,78.264a1.744,1.744,0,0,1,1.734-1.739H13.919a1.739,1.739,0,0,1,0,3.478H3.473a1.732,1.732,0,0,1-1.734-1.739ZM56.586,67.022a8.7,8.7,0,1,0-12.3,0A8.7,8.7,0,0,0,56.586,67.022ZM38.262,26.088A1.739,1.739,0,0,1,40,24.349H59.133a1.739,1.739,0,0,1,0,3.478H40a1.734,1.734,0,0,1-1.739-1.739Zm0,8.7a1.734,1.734,0,0,1,1.727-1.739H67.841a1.739,1.739,0,0,1,0,3.478H39.989a1.729,1.729,0,0,1-1.727-1.739Zm0,8.7A1.737,1.737,0,0,1,40,41.741H52.179a1.739,1.739,0,0,1,0,3.478H40a1.732,1.732,0,0,1-1.736-1.739ZM5.217,33.045a5.218,5.218,0,1,1,5.218-5.218A5.218,5.218,0,0,1,5.217,33.045Zm0-2.609a2.609,2.609,0,1,0-2.609-2.609,2.609,2.609,0,0,0,2.609,2.609Zm107.83-7.826a5.218,5.218,0,1,1,5.218-5.218,5.218,5.218,0,0,1-5.218,5.218Zm0-2.609a2.609,2.609,0,1,0-2.609-2.609A2.609,2.609,0,0,0,113.048,20Z" transform="translate(0)"/>
</svg>
