<svg xmlns="http://www.w3.org/2000/svg" width="20.378" height="20.345" viewBox="0 0 20.378 20.345">
  <defs>
    <style>
      .cls-1 {
        fill: #2979ff;
      }
    </style>
  </defs>
  <path id="路径_773" data-name="路径 773" class="cls-1" d="M20.378,14.5v6.582a.955.955,0,0,1-.955.955H.955A.955.955,0,0,1,0,21.079V14.5a.955.955,0,0,1,1.91,0v5.627H18.468V14.5a.955.955,0,0,1,1.91,0ZM9.529,17.4a.954.954,0,0,0,1.351,0l5.968-5.967A.956.956,0,1,0,15.5,10.084l-4.334,4.336V2.611a.957.957,0,0,0-1.912,0V14.422L4.914,10.085a.956.956,0,0,0-1.351,1.351L9.529,17.4Z" transform="translate(0 -1.689)"/>
</svg>
