<?xml version="1.0" standalone="no"?><!DOCTYPE svg PUBLIC "-//W3C//DTD SVG 1.1//EN" "http://www.w3.org/Graphics/SVG/1.1/DTD/svg11.dtd"><svg t="1621313968464" class="icon" viewBox="0 0 1024 1024" version="1.1" xmlns="http://www.w3.org/2000/svg" p-id="1191" xmlns:xlink="http://www.w3.org/1999/xlink" width="200" height="200"><defs><style type="text/css"></style></defs><path d="M513.577807 1018.488425a24.572224 24.572224 0 0 1-20.193066-10.568544L192.002048 573.35428a24.680756 24.680756 0 0 1-0.937879-1.458012 373.881965 373.881965 0 0 1-34.076952-75.366151c-12.077751-37.311405-18.198538-76.196522-18.198537-115.589486 0-206.664086 168.133233-374.798343 374.798342-374.798343 47.94343 0 96.038396 11.579119 142.947702 34.415857 42.703185 20.788968 83.766106 51.042731 118.751244 87.488954 34.08719 35.511415 62.431408 76.862047 81.96714 119.582638 20.362007 44.524677 31.122018 90.612827 31.120994 133.280177 0 39.402179-6.12181 78.286272-18.194442 115.573104-8.337498 25.72819-19.85928 51.384709-33.324396 74.200969-0.304094 0.516038-0.627642 1.020814-0.968595 1.514327L533.770874 1007.917833a24.576319 24.576319 0 0 1-20.193067 10.570592zM232.890908 546.072856l280.683828 404.718319L794.978354 544.949654c11.469563-19.570544 21.298863-41.546195 28.44763-63.607852 10.484586-32.383445 15.802646-66.175756 15.802646-100.430864 0.004096-72.181868-37.153727-153.987233-99.396739-218.828867C674.686163 94.213832 592.223463 55.289808 513.588046 55.289808c-179.564913 0-325.651847 146.086934-325.651847 325.651847 0 34.245892 5.317036 68.039228 15.804694 100.439054a324.581887 324.581887 0 0 0 29.150015 64.692147z m582.802694 12.12485h0.010239-0.010239z m-302.760842 18.642904c-96.8616 0-175.66391-78.803334-175.66391-175.664934s78.80231-175.66391 175.66391-175.663909c96.862623 0 175.66391 78.80231 175.663909 175.663909s-78.801286 175.664934-175.663909 175.664934z m0-302.182348c-69.762427 0-126.517414 56.756011-126.517415 126.517414S443.171357 527.694114 512.93276 527.694114 639.450174 470.938103 639.450174 401.175676s-56.754987-126.517414-126.517414-126.517414z" fill="#d4237a" p-id="1192"></path></svg>