<svg xmlns="http://www.w3.org/2000/svg" width="113.111" height="124.585" viewBox="0 0 113.111 124.585">
  <g id="表单构建" transform="translate(-1038 -207)">
    <path id="路径_53" data-name="路径 53" class="cls-1" d="M68.631,53.993c1.222,6.593,6.488,11.327,12.6,11.326h35.99c6.111,0,11.376-4.736,12.6-11.329l10.534,0c8.509,0,15.412,7.583,15.429,16.955V150.3c-.009,9.376-6.917,16.967-15.429,16.955H58.091c-8.507,0-15.407-7.586-15.424-16.955V70.948c.009-9.376,6.917-16.967,15.429-16.955Zm4.884,33.978a5.689,5.689,0,0,0,0,11.326h30.848a5.689,5.689,0,0,0,0-11.326Zm0,22.652a5.689,5.689,0,0,0,0,11.326h51.414a5.689,5.689,0,0,0,0-11.326Zm0,22.652a5.689,5.689,0,0,0,0,11.326h30.848a5.689,5.689,0,0,0,0-11.326Zm7.712-90.608h35.99c4.259,0,7.712,3.8,7.712,8.494s-3.453,8.494-7.712,8.494H81.227c-4.259,0-7.712-3.8-7.712-8.494S76.968,42.667,81.227,42.667Z" transform="translate(995.333 164.333)"/>
  </g>
</svg>
