<svg xmlns="http://www.w3.org/2000/svg" width="54.915" height="54.915" viewBox="0 0 54.915 54.915">
  <g id="标准" transform="translate(-96.914 -96.914)">
    <path id="路径_296" data-name="路径 296" class="cls-1" d="M416.188,430.452c-.488-.244-.976-.61-1.586-.854v-1.464h1.22v-1.708H414.6v-2.2h-1.586v2.2h-1.464v1.708h1.342a21.717,21.717,0,0,1-1.464,3.539c.122.732.244,1.464.366,2.319a15.186,15.186,0,0,0,1.22-2.441V436.8H414.6v-5.492c.366.244.61.366.732.61Zm.732,0a26.851,26.851,0,0,1-1.586,4.149,7.466,7.466,0,0,1,1.464.61,28.582,28.582,0,0,0,1.586-4.271Zm-.488-5.736h7.322v1.708h-7.322Z" transform="translate(-293.525 -305.47)"/>
    <path id="路径_297" data-name="路径 297" class="cls-1" d="M124.372,96.914a27.458,27.458,0,1,0,27.458,27.458A27.5,27.5,0,0,0,124.372,96.914Zm0,44.3c-2.685,0-13.18-7.078-13.18-13.79L111.07,114h1.342a22.615,22.615,0,0,0,5.98-1.22,23.167,23.167,0,0,0,5.125-2.685l.732-.488.854.488a27.453,27.453,0,0,0,5.125,2.685,18,18,0,0,0,5.98,1.22h1.1l.122,13.424C137.674,134.134,127.423,141.212,124.372,141.212Z" transform="translate(0 0)"/>
    <path id="路径_298" data-name="路径 298" class="cls-1" d="M485.555,480.914h-8.3v1.708h3.295v4.637a.647.647,0,0,1-.732.732,4.579,4.579,0,0,1-1.22-.122q.183.732.366,1.831h1.953a1.294,1.294,0,0,0,1.464-1.464v-5.492h3.295v-1.83Z" transform="translate(-354.96 -358.373)"/>
    <path id="路径_299" data-name="路径 299" class="cls-1" d="M559.543,519.8c.488,1.22.976,2.563,1.464,4.149l1.586-.61a30.77,30.77,0,0,0-1.586-4.027Z" transform="translate(-431.754 -394.211)"/>
  </g>
</svg>
