<svg xmlns="http://www.w3.org/2000/svg" width="105.439" height="120.902" viewBox="0 0 105.439 120.902">
  <g id="标准判定" transform="translate(-1790.005 -388.127)">
    <g id="标准" transform="translate(1747.418 359.591)">
      <path id="路径_296" data-name="路径 296" class="cls-1" d="M415.858,430.021c-.454-.227-.909-.568-1.477-.8v-1.363h1.136v-1.59h-1.136v-2.044h-1.477v2.044h-1.363v1.59h1.249a20.213,20.213,0,0,1-1.363,3.294c.114.681.227,1.363.341,2.158a14.143,14.143,0,0,0,1.136-2.272v4.884h1.477v-5.111c.341.227.568.341.682.568Zm.681,0a25,25,0,0,1-1.477,3.862,6.95,6.95,0,0,1,1.363.568,26.588,26.588,0,0,0,1.477-3.975Zm-.454-5.338H422.9v1.59h-6.815Z" transform="translate(-294.978 -306.983)"/>
      <path id="路径_297" data-name="路径 297" class="cls-1" d="M122.47,96.914a25.556,25.556,0,1,0,25.556,25.556A25.594,25.594,0,0,0,122.47,96.914Zm0,41.23c-2.5,0-12.267-6.588-12.267-12.835l-.114-12.494h1.249a21.049,21.049,0,0,0,5.565-1.136,21.562,21.562,0,0,0,4.77-2.5l.681-.454.8.454a25.552,25.552,0,0,0,4.77,2.5,16.756,16.756,0,0,0,5.565,1.136h1.022l.114,12.494C134.85,131.556,125.31,138.144,122.47,138.144Z" transform="translate(0 0)"/>
      <path id="路径_298" data-name="路径 298" class="cls-1" d="M484.98,480.914h-7.724v1.59h3.067v4.316a.6.6,0,0,1-.681.681,4.261,4.261,0,0,1-1.136-.114q.17.682.341,1.7h1.817a1.2,1.2,0,0,0,1.363-1.363v-5.111h3.067v-1.7Z" transform="translate(-356.718 -360.148)"/>
      <path id="路径_299" data-name="路径 299" class="cls-1" d="M559.543,519.769c.454,1.136.909,2.385,1.363,3.862l1.477-.568a28.653,28.653,0,0,0-1.477-3.748Z" transform="translate(-433.893 -396.163)"/>
    </g>
    <path id="减去_15" data-name="减去 15" class="cls-1" d="M29.768,153.9A7.663,7.663,0,0,1,22,146.379V41.117a7.659,7.659,0,0,1,7.769-7.526L107.2,33a7.663,7.663,0,0,1,7.768,7.525l.427,55.866a33.532,33.532,0,0,0-45.265,22.023l-31.143.17a3.827,3.827,0,0,0-3.859,3.759c0,2.146,3.194,3.76,5.265,3.76H68.96c-.013.385-.021.785-.021,1.191a33.352,33.352,0,0,0,12.642,26.217ZM86.691,59.752a2.023,2.023,0,0,0-1.5.658L51.541,98.458l-2.414,14.815c-.007.057-.014.11-.02.161l-.006.047c-.034.254-.057.421,0,.491a.134.134,0,0,0,.108.04,2.139,2.139,0,0,0,.671-.222l15.952-5.855L96.829,69.809a1.817,1.817,0,0,0,.459-1.367,1.836,1.836,0,0,0-.694-1.271L87.952,60.19A2.03,2.03,0,0,0,86.691,59.752Z" transform="translate(1768.005 355.127)"/>
  </g>
</svg>
