<svg xmlns="http://www.w3.org/2000/svg" width="116.261" height="116.261" viewBox="0 0 116.261 116.261">
  <g id="参数设置" transform="translate(-1179.735 -21.483)">
    <path id="路径_17" data-name="路径 17" class="cls-1" d="M19.378,0H96.883a19.378,19.378,0,0,1,19.378,19.378V96.883a19.378,19.378,0,0,1-19.378,19.378H19.378A19.378,19.378,0,0,1,0,96.883V19.378A19.378,19.378,0,0,1,19.378,0ZM59.2,77.508H22.145a4.845,4.845,0,1,0,0,9.687H59.192a14.533,14.533,0,0,0,27.423,0h8.2a4.845,4.845,0,1,0,0-9.687h-8.2a14.533,14.533,0,0,0-27.412,0ZM29.891,29.065H21.86a4.845,4.845,0,1,0,0,9.687h8.034a14.533,14.533,0,0,0,27.412,0h37.2a4.845,4.845,0,0,0,0-9.687h-37.2a14.533,14.533,0,0,0-27.412,0Z" transform="translate(1179.735 21.483)"/>
  </g>
</svg>
