<svg xmlns="http://www.w3.org/2000/svg" width="119.062" height="119.062" viewBox="0 0 119.062 119.062">
  <g id="代码生成" transform="translate(-1185.469 -210.524)">
    <path id="路径_54" data-name="路径 54" class="cls-1" d="M107.156,0H11.906A11.906,11.906,0,0,0,0,11.906v95.249a11.906,11.906,0,0,0,11.906,11.906h95.249a11.906,11.906,0,0,0,11.906-11.906V11.906A11.906,11.906,0,0,0,107.156,0ZM39.707,74a2.568,2.568,0,1,1-3.631,3.631L19.7,61.257a2.56,2.56,0,0,1,0-3.631L36.076,41.255a2.56,2.56,0,0,1,3.631,0,2.619,2.619,0,0,1,0,3.691L25.182,59.531ZM78.045,28.575,45.66,93.166a2.681,2.681,0,1,1-4.643-2.679L73.342,25.836a2.738,2.738,0,0,1,4.7,2.738ZM99.357,61.257,82.986,77.39a2.619,2.619,0,0,1-3.691,0,2.56,2.56,0,0,1,0-3.631L93.88,59.531,79.3,44.946a2.619,2.619,0,1,1,3.691-3.691L99.357,57.626a2.56,2.56,0,0,1,0,3.631Z" transform="translate(1185.469 210.524)"/>
  </g>
</svg>
