<svg xmlns="http://www.w3.org/2000/svg" width="102.28" height="124.197" viewBox="0 0 102.28 124.197">
  <defs>
    <style>
      .cls-1 {
        fill: #707070;
      }
    </style>
  </defs>
  <g id="定时任务" transform="translate(-1782.97 -16.908)">
    <path id="路径_21" data-name="路径 21" class="cls-1" d="M257.46,222.244a32.876,32.876,0,0,1,51.615-22.355,1.826,1.826,0,0,0,2.886-1.461V135.306A7.306,7.306,0,0,0,304.654,128H220.639a7.306,7.306,0,0,0-7.306,7.306V244.891a7.306,7.306,0,0,0,7.306,7.306H264.8a1.826,1.826,0,0,0,1.278-3.1,32.876,32.876,0,0,1-8.621-26.848Zm-23.123-65.021h43.834a3.653,3.653,0,1,1,0,7.306H234.337a3.653,3.653,0,1,1,0-7.306Zm0,25.57a3.653,3.653,0,1,1,0-7.306h21.917a3.653,3.653,0,1,1,0,7.306Z" transform="translate(1569.636 -111.092)"/>
    <path id="路径_22" data-name="路径 22" class="cls-1" d="M561.943,568.275a25.314,25.314,0,1,0,3.653,13.114,25.571,25.571,0,0,0-3.653-13.114Zm-7.306,20.42H540.027a3.653,3.653,0,0,1-3.653-3.653V570.431a3.653,3.653,0,1,1,7.306,0v10.958h10.959a3.653,3.653,0,1,1,0,7.306Z" transform="translate(1319.653 -465.854)"/>
  </g>
</svg>
