<svg xmlns="http://www.w3.org/2000/svg" width="112.297" height="118.263" viewBox="0 0 112.297 118.263">
  <g id="服务机构" transform="translate(-736.852 -19.868)">
    <g id="组_1" data-name="组 1" transform="translate(710.185 18.894)">
      <path id="路径_13" data-name="路径 13" class="cls-1" d="M38.042,5.377A12.265,12.265,0,0,1,47.5.982q33.734-.006,67.47,0c2.168.029,4.388-.167,6.492.481a12.034,12.034,0,0,1,7.423,6.067q2.33,4.568,4.661,9.135-50.78.008-101.563,0l4.379-8.581a13.077,13.077,0,0,1,1.676-2.708ZM32.977,20.208a13.943,13.943,0,0,1,3.559-.243q47.1,0,94.207,0a8.229,8.229,0,0,1,6.233,2.9,8.554,8.554,0,0,1,1.987,5.249v7.337a8.555,8.555,0,0,1-1.9,5.324,8.258,8.258,0,0,1-6.455,3.006q-47.788,0-95.577,0a8.276,8.276,0,0,1-7.748-5.279,11.378,11.378,0,0,1-.612-3.788V29.5a19.507,19.507,0,0,1,.3-3.263,8.263,8.263,0,0,1,6.007-6.023Zm-.42,30.7A8.2,8.2,0,0,1,38.32,48.5q44.493,0,88.989,0a8.231,8.231,0,0,1,8.306,8.3q0,27.087,0,54.174a8.234,8.234,0,0,1-8.3,8.264q-16.075,0-32.152,0,0-16.822,0-33.644a8.222,8.222,0,0,0-8.169-8.12q-4.107,0-8.216,0A8.222,8.222,0,0,0,70.6,85.6q0,16.82,0,33.641-16.139,0-32.278,0a8.218,8.218,0,0,1-8.171-8.268q0-27.153,0-54.3a8.2,8.2,0,0,1,2.4-5.756Z" transform="translate(0 0)"/>
      <path id="路径_14" data-name="路径 14" class="cls-1" d="M491.223,699.213a2.739,2.739,0,0,1,3.259,2.693q0,14.814,0,29.63a4.328,4.328,0,0,1-.2,1.733,2.743,2.743,0,0,1-5.064.07,3.538,3.538,0,0,1-.228-1.533q.01-14.952.006-29.9a2.752,2.752,0,0,1,2.221-2.689Z" transform="translate(-408.841 -617.415)"/>
    </g>
  </g>
</svg>
