<svg xmlns="http://www.w3.org/2000/svg" width="99.753" height="124.692" viewBox="0 0 99.753 124.692">
  <g id="服务监控" transform="translate(-591.773 -206.654)">
    <g id="组_11" data-name="组 11" transform="translate(335.773 -6.679)">
      <path id="路径_46" data-name="路径 46" class="cls-1" d="M443.292,400.625m-16.626,0A16.626,16.626,0,1,0,443.292,384,16.626,16.626,0,0,0,426.667,400.625Z" transform="translate(-137.416 -137.416)"/>
      <path id="路径_47" data-name="路径 47" class="cls-1" d="M298.667,768h83.128v16.626H298.667Z" transform="translate(-34.354 -446.601)"/>
      <path id="路径_48" data-name="路径 48" class="cls-1" d="M469.333,640h16.626v41.564H469.333Z" transform="translate(-171.769 -343.539)"/>
      <path id="路径_49" data-name="路径 49" class="cls-1" d="M305.877,213.333A49.877,49.877,0,1,1,256,263.21,49.877,49.877,0,0,1,305.877,213.333Zm0,24.938a24.938,24.938,0,1,0,24.938,24.938A24.938,24.938,0,0,0,305.877,238.271Z"/>
    </g>
  </g>
</svg>
