<svg xmlns="http://www.w3.org/2000/svg" width="110.884" height="121.171" viewBox="0 0 110.884 121.171">
  <g id="工程项目" transform="translate(-1489.558 -208.415)">
    <path id="路径_279" data-name="路径 279" class="cls-1" d="M170.818,44.691H157.685V38.94a6.044,6.044,0,1,0-12.088,0v5.751H103.287V38.94a6.044,6.044,0,1,0-12.088,0v5.751H78.066A8.885,8.885,0,0,0,69,53.325v92.1a8.885,8.885,0,0,0,9.066,8.635h92.751a8.885,8.885,0,0,0,9.066-8.635v-92.1A8.885,8.885,0,0,0,170.818,44.691ZM136.53,113.767H88.177a5.759,5.759,0,1,1,0-11.51H136.53a5.759,5.759,0,1,1,0,11.51Zm24.177-28.779H88.177a5.759,5.759,0,1,1,0-11.51h72.53a5.759,5.759,0,1,1,0,11.51Z" transform="translate(1420.558 175.519)"/>
  </g>
</svg>
