<svg xmlns="http://www.w3.org/2000/svg" width="119.587" height="119.587" viewBox="0 0 119.587 119.587">
  <g id="岗位管理" transform="translate(-1029.206 -19.157)">
    <path id="路径_16" data-name="路径 16" class="cls-1" d="M123.774,64.02a59.793,59.793,0,1,0,59.793,59.793A59.793,59.793,0,0,0,123.774,64.02Zm31.552,86.363a3.322,3.322,0,0,1-3.321,3.322h-9.965a3.321,3.321,0,0,1-3.321-3.322V143.74a3.321,3.321,0,0,1,3.321-3.321h6.643V120.492H125.435V140.42h3.321a3.321,3.321,0,0,1,3.321,3.321v6.643a3.321,3.321,0,0,1-3.321,3.322h-9.964a3.321,3.321,0,0,1-3.321-3.322v-6.643a3.321,3.321,0,0,1,3.321-3.321h3.322V120.492H98.865V140.42h6.642a3.321,3.321,0,0,1,3.321,3.321v6.643a3.322,3.322,0,0,1-3.321,3.322H95.544a3.322,3.322,0,0,1-3.322-3.322v-6.643a3.321,3.321,0,0,1,3.322-3.321V117.171h26.57V103.886h-3.322a3.321,3.321,0,0,1-3.321-3.321V93.922h16.606v6.643a3.321,3.321,0,0,1-3.321,3.321h-3.321v13.284h26.571V140.42a3.321,3.321,0,0,1,3.321,3.321Z" transform="translate(965.226 -44.863)"/>
  </g>
</svg>
