<svg xmlns="http://www.w3.org/2000/svg" width="126.748" height="112.929" viewBox="0 0 126.748 112.929">
  <g id="竣工查验" transform="translate(-873.126 -392.389)">
    <g id="组_24" data-name="组 24" transform="translate(-101.377 -260.698)">
      <path id="减去_10" data-name="减去 10" class="cls-1" d="M4.473,112.929a4.529,4.529,0,0,1-3.063-1.176,4.28,4.28,0,0,1-1.4-2.893,4.37,4.37,0,0,1,3.909-4.578l.554-.029h6.7a4.4,4.4,0,0,0,4.4-3.659l.059-.686V8.69a8.547,8.547,0,0,1,2.333-5.856A9.026,9.026,0,0,1,23.735.029L24.529,0h58.01a9.037,9.037,0,0,1,6.014,2.271A8.577,8.577,0,0,1,91.42,7.888l.045.788V21.711A4.356,4.356,0,0,0,95.225,26l.7.059h13.391a9.035,9.035,0,0,1,6.013,2.271,8.578,8.578,0,0,1,2.868,5.618l.045.787v25A31,31,0,0,0,86.4,112.915ZM64.744,65.147a4.4,4.4,0,0,0-4.4,3.66l-.06.685v4.345a4.358,4.358,0,0,0,3.759,4.287l.7.058h4.464a4.4,4.4,0,0,0,4.4-3.66l.059-.685V69.493a4.41,4.41,0,0,0-4.463-4.345Zm-26.78,0a4.4,4.4,0,0,0-4.4,3.66l-.059.685v4.345a4.358,4.358,0,0,0,3.759,4.287l.7.058h4.463a4.444,4.444,0,0,0,4.434-3.806l.03-.539V69.493a4.411,4.411,0,0,0-4.464-4.345Zm26.78-26.07a4.4,4.4,0,0,0-4.4,3.659l-.06.685v4.345a4.356,4.356,0,0,0,3.759,4.287l.7.059h4.464a4.4,4.4,0,0,0,4.4-3.659l.059-.686V43.422a4.41,4.41,0,0,0-4.463-4.345Zm-26.78,0a4.4,4.4,0,0,0-4.4,3.659l-.059.685v4.345a4.356,4.356,0,0,0,3.759,4.287l.7.059h4.463a4.441,4.441,0,0,0,4.433-3.805l.031-.54V43.421a4.41,4.41,0,0,0-4.464-4.344ZM64.744,13.02a4.4,4.4,0,0,0-4.4,3.66l-.06.685v4.345A4.356,4.356,0,0,0,64.04,26l.7.059h4.464a4.4,4.4,0,0,0,4.4-3.659l.059-.686V17.366a4.41,4.41,0,0,0-4.463-4.345Zm-26.78,0a4.4,4.4,0,0,0-4.4,3.66l-.059.685v4.345A4.356,4.356,0,0,0,37.26,26l.7.059h4.463a4.441,4.441,0,0,0,4.433-3.805l.031-.54V17.366a4.411,4.411,0,0,0-4.464-4.345Z" transform="translate(974.503 653.087)"/>
      <path id="减去_11" data-name="减去 11" class="cls-1" d="M24,48A24,24,0,0,1,7.029,7.029,24,24,0,0,1,40.97,40.97,23.842,23.842,0,0,1,24,48Zm5.265-16.492h0l.041.054,5.141,5.278a1.691,1.691,0,0,0,2.407,0,1.805,1.805,0,0,0,0-2.475l-5.141-5.278-.164-.137a12.321,12.321,0,0,0,2.05-6.823A11.981,11.981,0,0,0,21.8,10,11.981,11.981,0,0,0,10,22.128,11.974,11.974,0,0,0,21.8,34.243a11.641,11.641,0,0,0,7.465-2.734ZM21.8,30.8a8.565,8.565,0,0,1-8.437-8.669,8.755,8.755,0,0,1,2.47-6.141,8.275,8.275,0,0,1,11.933,0,8.755,8.755,0,0,1,2.47,6.141A8.565,8.565,0,0,1,21.8,30.8Z" transform="translate(1053.251 716.103)"/>
    </g>
  </g>
</svg>
