<svg xmlns="http://www.w3.org/2000/svg" width="111.068" height="123.603" viewBox="0 0 111.068 123.603">
  <g id="角色管理" transform="translate(-939.257 -521.193)">
    <path id="减去_4" data-name="减去 4" class="cls-1" d="M57.743,116.095H0A58,58,0,0,1,58.047,58.047,29.031,29.031,0,0,1,46.75,2.281,29.031,29.031,0,0,1,69.345,55.767a28.842,28.842,0,0,1-11.3,2.281,57.752,57.752,0,0,1,30.1,8.407l-.1.042h-.084a34.038,34.038,0,0,0-34,34,33.625,33.625,0,0,0,3.781,15.6Z" transform="translate(939.257 521.193)"/>
    <path id="减去_5" data-name="减去 5" class="cls-2" d="M24.465,48.931A24.472,24.472,0,0,1,14.942,1.923,24.472,24.472,0,0,1,33.989,47.008,24.313,24.313,0,0,1,24.465,48.931ZM16.805,34.34h0a13.2,13.2,0,0,0,2.448,1.34l.132,1.5a3.235,3.235,0,0,0,3.294,3.064h3.57a3.231,3.231,0,0,0,3.294-3.064l.13-1.5a13.091,13.091,0,0,0,2.451-1.343l1.439.646a3.454,3.454,0,0,0,1.593.39,3.349,3.349,0,0,0,2.857-1.558L39.8,30.89a2.965,2.965,0,0,0,.344-2.3,3.109,3.109,0,0,0-1.5-1.925L37.334,25.8a11.657,11.657,0,0,0,0-2.675l1.309-.857a3.119,3.119,0,0,0,1.5-1.932,2.963,2.963,0,0,0-.346-2.3l-1.785-2.924a3.352,3.352,0,0,0-2.858-1.558,3.447,3.447,0,0,0-1.592.39l-1.44.643a13.091,13.091,0,0,0-2.449-1.34l-.132-1.5A3.235,3.235,0,0,0,26.25,8.69h-3.57a3.231,3.231,0,0,0-3.294,3.064l-.13,1.5a13.068,13.068,0,0,0-2.449,1.342l-1.441-.642a3.452,3.452,0,0,0-1.6-.392,3.345,3.345,0,0,0-2.854,1.558L9.129,18.038a2.967,2.967,0,0,0-.343,2.3,3.116,3.116,0,0,0,1.5,1.929l1.309.857a11.653,11.653,0,0,0,0,2.674l-1.309.86a3.111,3.111,0,0,0-1.5,1.927,2.962,2.962,0,0,0,.344,2.3l1.785,2.925a3.355,3.355,0,0,0,2.859,1.558,3.448,3.448,0,0,0,1.592-.39L16.8,34.34Zm7.66-3.805a6.068,6.068,0,1,1,6.068-6.068A6.084,6.084,0,0,1,24.465,30.534Z" transform="translate(1000.895 595.365)"/>
  </g>
</svg>
