<svg xmlns="http://www.w3.org/2000/svg" width="109.012" height="124.585" viewBox="0 0 109.012 124.585">
  <g id="建筑消防设施" transform="translate(-1790.005 -207.415)">
    <path id="路径_280" data-name="路径 280" class="cls-1" d="M118.506,124.585q-10.237-16.305-15-17.664a54.5,54.5,0,1,1,30.5-.144q-4.906,1.454-15.5,17.808ZM149.621,20.121a4.646,4.646,0,0,0-.755.066l-16.293,3.259a5.929,5.929,0,0,0-4.672,5.673H107c-13.743,0-18.933-8.156-19.151-8.507a2.336,2.336,0,0,0-3.278-.771,2.445,2.445,0,0,0-.755,3.325,22.57,22.57,0,0,0,8.129,7.187,23.124,23.124,0,0,0-8.48,18.54V80.233a2.372,2.372,0,1,0,4.742,0V48.869a18.45,18.45,0,0,1,8.955-16.332A33.066,33.066,0,0,0,107,33.985h9.138v2.741l-15.48,9.718a2.461,2.461,0,0,0-1.137,2.071L99.542,94.9a2.406,2.406,0,0,0,2.375,2.437H135.1a2.41,2.41,0,0,0,2.375-2.433v0l.016-46.381a2.464,2.464,0,0,0-1.11-2.063l-15.5-9.971V33.988h7.02a5.921,5.921,0,0,0,4.672,5.665l16.3,3.259a3.816,3.816,0,0,0,.755.066,3.917,3.917,0,0,0,3.921-4.127V24.24a3.919,3.919,0,0,0-3.924-4.123ZM123.081,63.18h9.667L132.74,77.8h-9.655V63.184Z" transform="translate(1726.005 207.415)"/>
  </g>
</svg>
