<svg xmlns="http://www.w3.org/2000/svg" width="106.788" height="122.808" viewBox="0 0 106.788 122.808">
  <g id="任务分配" transform="translate(-589.519 -385.596)">
    <path id="减去_9" data-name="减去 9" class="cls-1" d="M98.677,123.9H8.206A8.256,8.256,0,0,1,0,115.695V25.615a8.256,8.256,0,0,1,8.206-8.206h4.1v12.31a8.217,8.217,0,0,0,8.207,8.207H86.268a8.217,8.217,0,0,0,8.207-8.207V17.409h4.1a8.256,8.256,0,0,1,8.206,8.206v90.08a7.922,7.922,0,0,1-2.294,5.749A8.08,8.08,0,0,1,98.677,123.9ZM53.808,58.677A22.656,22.656,0,1,0,76.465,81.333,22.681,22.681,0,0,0,53.808,58.677ZM47.56,95.824a2.691,2.691,0,0,1-1.9-.782l-8.376-8.376a2.671,2.671,0,0,1,1.887-4.56H68.417a2.676,2.676,0,0,1,2.673,2.673,2.6,2.6,0,0,1-.761,1.87,2.65,2.65,0,0,1-1.9.789h-22.8l3.816,3.816a2.656,2.656,0,0,1,.782,1.889,2.69,2.69,0,0,1-.782,1.9A2.654,2.654,0,0,1,47.56,95.824ZM39.173,80.562a2.632,2.632,0,0,1-2.66-2.659,2.676,2.676,0,0,1,2.673-2.673h22.8l-3.816-3.816a2.694,2.694,0,0,1,0-3.788,2.653,2.653,0,0,1,1.888-.782,2.69,2.69,0,0,1,1.9.782L70.332,76a2.671,2.671,0,0,1-1.886,4.56H39.173ZM73.958,29.718H32.925a8.257,8.257,0,0,1-8.207-8.206v-4.1C41.091,5.421,41.346,5.178,45.594,1.122l.031-.03H61.942c.526.5.976.938,1.411,1.362,2.893,2.815,4.639,4.514,18.813,14.954v4.1A8.119,8.119,0,0,1,73.958,29.718ZM53.442,9.3a8.207,8.207,0,1,0,8.206,8.207A8.217,8.217,0,0,0,53.442,9.3Z" transform="translate(589.519 384.503)"/>
  </g>
</svg>
