<svg xmlns="http://www.w3.org/2000/svg" xmlns:xlink="http://www.w3.org/1999/xlink" width="120" height="112" viewBox="0 0 120 112">
  <defs>
    <style>
      .cls-1, .cls-2, .cls-4 {
        fill: none;
      }

      .cls-2, .cls-4 {
        stroke: #2979ff;
        stroke-width: 5px;
      }

      .cls-3 {
        clip-path: url(#clip-path);
      }

      .cls-4 {
        stroke-linecap: round;
      }

      .cls-5 {
        stroke: none;
      }
    </style>
    <clipPath id="clip-path">
      <rect class="cls-1" width="105.046" height="29.376"/>
    </clipPath>
  </defs>
  <g id="视频" transform="translate(-1437.74 -429.873)">
    <g id="矩形_1061" data-name="矩形 1061" class="cls-2" transform="translate(1437.74 429.873)">
      <rect class="cls-5" width="120" height="112" rx="6"/>
      <rect class="cls-1" x="2.5" y="2.5" width="115" height="107" rx="3.5"/>
    </g>
    <path id="路径_771" data-name="路径 771" class="cls-2" d="M8924.395-2352.82h115.152" transform="translate(-7484.776 2812.622)"/>
    <g id="重复网格_1" data-name="重复网格 1" class="cls-3" transform="translate(1446.723 430.886)">
      <g transform="translate(-1439.999 -430.043)">
        <path id="路径_772" data-name="路径 772" class="cls-2" d="M8926.2-2356.428l3.188,29.151" transform="translate(-7483.891 2786.725)"/>
      </g>
      <g transform="translate(-1415.999 -430.043)">
        <path id="路径_772-2" data-name="路径 772" class="cls-2" d="M8926.2-2356.428l3.188,29.151" transform="translate(-7483.891 2786.725)"/>
      </g>
      <g transform="translate(-1391.999 -430.043)">
        <path id="路径_772-3" data-name="路径 772" class="cls-2" d="M8926.2-2356.428l3.188,29.151" transform="translate(-7483.891 2786.725)"/>
      </g>
      <g transform="translate(-1367.999 -430.043)">
        <path id="路径_772-4" data-name="路径 772" class="cls-2" d="M8926.2-2356.428l3.188,29.151" transform="translate(-7483.891 2786.725)"/>
      </g>
      <g transform="translate(-1343.999 -430.043)">
        <path id="路径_772-5" data-name="路径 772" class="cls-2" d="M8926.2-2356.428l3.188,29.151" transform="translate(-7483.891 2786.725)"/>
      </g>
    </g>
    <path id="多边形_4" data-name="多边形 4" class="cls-4" d="M20.935,4.681a4,4,0,0,1,6.554,0L44.018,28.294a4,4,0,0,1-3.277,6.294H7.683a4,4,0,0,1-3.277-6.294Z" transform="translate(1519.365 472.391) rotate(90)"/>
  </g>
</svg>
