<svg xmlns="http://www.w3.org/2000/svg" width="120.588" height="120.588" viewBox="0 0 120.588 120.588">
  <g id="现场评定" transform="translate(-1182.706 -386.706)">
    <path id="路径_295" data-name="路径 295" class="cls-1" d="M206.473,265.241l-7.674,3.289h-.548a4.155,4.155,0,0,0-1.1,2.193v.548l3.837,7.674v.548c0,.548.548.548,1.1.548h1.644l7.674-3.289ZM304.588,188.5a11.155,11.155,0,0,1-8.222,3.289h-13.7v88.8h13.7c4.385-.548,7.674-3.837,7.674-7.674V188.5Zm-55.361,57.005L210.31,263.6l1.644,3.837,15.9-7.126h.548c1.1,0,2.193.548,2.193,1.1a2.41,2.41,0,0,1-.548,2.741h-.548l-15.9,7.126,1.644,3.837,38.917-18.088-1.1-3.837-13.7,6.029h-.548c-1.1,0-2.193-.548-2.193-1.1s0-2.193.548-2.741h.548l13.7-6.029Zm46.591-74.545H209.762V248.8c0,1.644-1.644,3.289-3.837,3.837h-13.7A9.327,9.327,0,0,0,184,260.307v1.644c.548,4.385,3.837,7.674,8.222,7.674h1.1v-.548a6.991,6.991,0,0,1,2.741-3.837l.548-.548,53.168-24.118h1.1l16.992-1.1h.548a3.006,3.006,0,0,1,3.289,2.193l.548.548.548,1.1v.548c.548,1.1,0,2.741-.548,3.837h-1.1l-12.059,12.059h-.548l-21.377,9.866h41.11V191.791c0-1.644,1.644-3.289,3.837-3.837h14.251a8.8,8.8,0,0,0,6.029-2.741,8.243,8.243,0,0,0,2.192-6.029c0-4.385-3.289-7.674-7.674-8.222h-1.1Zm-27.955,72.353-13.7,1.1,4.385,9.866,9.866-9.866-.548-1.1ZM205.377,160h-13.7c-2.193,0-3.837,1.1-5.481,2.741A8.163,8.163,0,0,0,184,167.674v83.864l.548-.548a16.884,16.884,0,0,1,6.578-2.741h14.251Zm46.043,29.6c12.059,3.289,14.251,17.54,14.8,23.57,2.193.548,4.385,1.644,4.385,3.837v.548c0,1.644-4.385,8.222-26.31,8.222-15.348,0-26.858-3.837-26.858-8.222,0-2.741,2.193-3.837,4.933-4.385.548-9.866,5.481-19.733,13.155-23.021l1.1-.548v15.348a7.256,7.256,0,0,0,7.126,7.126c3.837,0,6.578-2.741,7.126-6.578V189.6Zm-7.126-1.644a4.942,4.942,0,0,1,2.741.548h.548v16.444a3.665,3.665,0,0,1-3.289,3.837,3.159,3.159,0,0,1-3.289-3.289V188.5c1.1,0,1.644-.548,2.741-.548h.548Z" transform="translate(998.706 226.706)"/>
  </g>
</svg>
