<svg xmlns="http://www.w3.org/2000/svg" width="123.436" height="122.426" viewBox="0 0 123.436 122.426">
  <g id="消防检查" transform="translate(-1029.564 -385.574)">
    <path id="检查" class="cls-1" d="M24,48A24,24,0,0,1,7.029,7.029,24,24,0,0,1,40.97,40.97,23.842,23.842,0,0,1,24,48Zm5.265-16.492h0l.041.054,5.141,5.278a1.691,1.691,0,0,0,2.407,0,1.805,1.805,0,0,0,0-2.475l-5.141-5.278-.164-.137a12.321,12.321,0,0,0,2.05-6.823A11.981,11.981,0,0,0,21.8,10,11.981,11.981,0,0,0,10,22.128,11.974,11.974,0,0,0,21.8,34.243a11.641,11.641,0,0,0,7.465-2.734ZM21.8,30.8a8.565,8.565,0,0,1-8.437-8.669,8.755,8.755,0,0,1,2.47-6.141,8.275,8.275,0,0,1,11.933,0,8.755,8.755,0,0,1,2.47,6.141A8.565,8.565,0,0,1,21.8,30.8Z" transform="translate(1105 460)"/>
    <path id="减去_12" data-name="减去 12" class="cls-1" d="M77.9,119.743H18.518a7.528,7.528,0,0,1,1.694-4.758,7.446,7.446,0,0,1,4.236-2.574,1.839,1.839,0,0,0,1.5-1.813V67.356a33.7,33.7,0,0,1,9.749-23.772A33.2,33.2,0,0,1,59.24,33.678h.126a32.455,32.455,0,0,1,12.983,2.694,33.551,33.551,0,0,1,10.627,7.317,34.178,34.178,0,0,1,7.178,10.8A33.813,33.813,0,0,1,92.79,67.613V68.77A31.087,31.087,0,0,0,77.9,119.742ZM65.785,54.259,46.37,82.64h8.843L52.961,102.9l19.4-28.381H63.534Zm33.079.539h0a3.721,3.721,0,0,1-3.579-2.772,3.767,3.767,0,0,1,2.623-4.584l16.142-4.362a3.7,3.7,0,0,1,4.55,2.643,3.749,3.749,0,0,1-2.623,4.584L99.834,54.668A3.71,3.71,0,0,1,98.864,54.8Zm-78.992,0a3.709,3.709,0,0,1-.971-.13L2.759,50.318A3.768,3.768,0,0,1,.124,45.734a3.7,3.7,0,0,1,4.549-2.643l16.143,4.362a3.737,3.737,0,0,1-.945,7.344ZM88.146,35.125h0a3.7,3.7,0,0,1-1.855-.5,3.773,3.773,0,0,1-1.358-5.11l8.356-14.582a3.7,3.7,0,0,1,5.071-1.368,3.761,3.761,0,0,1,1.358,5.11L91.363,33.257A3.712,3.712,0,0,1,88.146,35.125Zm-57.556,0a3.712,3.712,0,0,1-3.217-1.869L19.017,18.675a3.76,3.76,0,0,1,1.358-5.11,3.7,3.7,0,0,1,5.071,1.368L33.8,29.515a3.773,3.773,0,0,1-1.357,5.11A3.7,3.7,0,0,1,30.589,35.125Zm28.778-10.8a3.732,3.732,0,0,1-3.713-3.741V3.742a3.714,3.714,0,1,1,7.427,0V20.581A3.732,3.732,0,0,1,59.368,24.322Z" transform="translate(1029.563 385.574)"/>
  </g>
</svg>
