<svg xmlns="http://www.w3.org/2000/svg" width="119.615" height="121.171" viewBox="0 0 119.615 121.171">
  <g id="项目管理" transform="translate(-1489.558 -494.415)">
    <path id="管理" class="cls-1" d="M24,48A24,24,0,0,1,7.029,7.029,24,24,0,1,1,40.97,40.97,23.843,23.843,0,0,1,24,48ZM16.806,34.34h0a13.2,13.2,0,0,0,2.448,1.34l.131,1.5a3.236,3.236,0,0,0,3.295,3.064H26.25a3.232,3.232,0,0,0,3.294-3.064l.13-1.5a13.121,13.121,0,0,0,2.452-1.342l1.438.644a3.454,3.454,0,0,0,1.595.39,3.347,3.347,0,0,0,2.856-1.558L39.8,30.89a2.967,2.967,0,0,0,.343-2.3,3.111,3.111,0,0,0-1.5-1.925l-1.31-.857a11.67,11.67,0,0,0,0-2.675l1.31-.857a3.12,3.12,0,0,0,1.5-1.933,2.961,2.961,0,0,0-.346-2.3l-1.785-2.924a3.352,3.352,0,0,0-2.858-1.558,3.448,3.448,0,0,0-1.593.39l-1.441.643a13.145,13.145,0,0,0-2.449-1.34l-.132-1.5A3.234,3.234,0,0,0,26.25,8.69H22.681a3.232,3.232,0,0,0-3.295,3.063l-.13,1.5a13.157,13.157,0,0,0-2.449,1.343l-1.441-.643a3.45,3.45,0,0,0-1.6-.392,3.345,3.345,0,0,0-2.854,1.557L9.13,18.038a2.966,2.966,0,0,0-.344,2.3,3.116,3.116,0,0,0,1.5,1.929l1.31.857a11.575,11.575,0,0,0,0,2.675l-1.31.86a3.113,3.113,0,0,0-1.5,1.928,2.961,2.961,0,0,0,.345,2.3l1.785,2.925a3.353,3.353,0,0,0,2.858,1.558,3.446,3.446,0,0,0,1.593-.39l1.44-.642Zm7.66-3.805a6.068,6.068,0,1,1,6.068-6.068A6.086,6.086,0,0,1,24.466,30.534Z" transform="translate(1560.674 564.655)"/>
    <path id="减去_6" data-name="减去 6" class="cls-2" d="M13.558,121.171a8.359,8.359,0,0,1-5.964-2.512A8.994,8.994,0,0,1,5,112.534V20.429A8.993,8.993,0,0,1,7.594,14.3a8.361,8.361,0,0,1,5.965-2.512l.18,0H26.218V6.044a5.83,5.83,0,1,1,11.651,0v5.75H78.653V6.044a5.83,5.83,0,1,1,11.651,0v5.75h13.182l.18,0a8.36,8.36,0,0,1,5.964,2.512,9,9,0,0,1,2.595,6.125V64.135a31.059,31.059,0,0,0-13.48-3.05A31.851,31.851,0,0,0,74.837,72.068a5.476,5.476,0,0,0-4.71-2.711c-.071,0-.143,0-.214,0H23.3c-.071,0-.143,0-.214,0a5.539,5.539,0,0,0-4.771,2.816,5.943,5.943,0,0,0,0,5.887,5.539,5.539,0,0,0,4.771,2.816c.071,0,.143,0,.214,0H69.275a34.3,34.3,0,0,0-2.821,13.714,33.735,33.735,0,0,0,12.639,26.583H13.739ZM23.3,52.093H93.218c.071,0,.143,0,.214,0A5.541,5.541,0,0,0,98.2,49.281a5.944,5.944,0,0,0,0-5.888,5.539,5.539,0,0,0-4.771-2.815c-.072,0-.145,0-.216,0H23.3c-.071,0-.143,0-.214,0a5.538,5.538,0,0,0-4.771,2.816,5.942,5.942,0,0,0,0,5.887A5.539,5.539,0,0,0,23.091,52.1C23.162,52.1,23.234,52.1,23.3,52.093Z" transform="translate(1484.558 494.415)"/>
  </g>
</svg>
