<svg xmlns="http://www.w3.org/2000/svg" width="114.411" height="122.808" viewBox="0 0 114.411 122.808">
  <g id="项目验收" transform="translate(-887.496 -386.596)">
    <g id="组_23" data-name="组 23" transform="translate(851.696 385.696)">
      <path id="路径_289" data-name="路径 289" class="cls-1" d="M88.921,10.318H80.74A4.709,4.709,0,1,1,80.74.9h8.181a4.709,4.709,0,0,1,0,9.418Zm34.922,3.087H90.687a6.907,6.907,0,1,1-11.725,0H43.933A8.212,8.212,0,0,0,35.8,21.694v88.331a8.212,8.212,0,0,0,8.133,8.289H92.285a36.868,36.868,0,0,1-7.917-22.921c0-20.194,16.073-36.579,35.883-36.579a35.42,35.42,0,0,1,11.713,1.994V21.694A8.194,8.194,0,0,0,123.843,13.405ZM75.13,96.475H54.324a5.275,5.275,0,0,1,0-10.547H75.13a5.275,5.275,0,0,1,0,10.547ZM88.3,70.527H54.324a5.275,5.275,0,0,1,0-10.547H88.285A5.275,5.275,0,0,1,88.3,70.527Zm24.1-25.936H54.324a5.275,5.275,0,0,1,0-10.547h58.071a5.275,5.275,0,0,1,0,10.547Z" transform="translate(0)"/>
      <path id="路径_290" data-name="路径 290" class="cls-1" d="M249.021,44.653a6.911,6.911,0,0,1,6.5,4.553h20.134a9.447,9.447,0,0,0-9.694-9.106H232.082a9.429,9.429,0,0,0-9.682,9.106h20.134A6.883,6.883,0,0,1,249.021,44.653ZM286.1,101.618a28.29,28.29,0,1,0,28.291,28.29A28.292,28.292,0,0,0,286.1,101.618Zm18.98,20.086-21.7,21.707a3.77,3.77,0,0,1-5.31,0l-10.956-10.956a3.746,3.746,0,1,1,5.3-5.3l8.313,8.313,19.053-19.053a3.742,3.742,0,0,1,5.3,5.286Z" transform="translate(-164.184 -34.491)"/>
    </g>
  </g>
</svg>
