<svg xmlns="http://www.w3.org/2000/svg" width="123.724" height="116.998" viewBox="0 0 123.724 116.998">
  <g id="项目组队" transform="translate(-731.276 -586.192)">
    <g id="组_28" data-name="组 28" transform="translate(647.876 479.492)">
      <path id="路径_304" data-name="路径 304" class="cls-1" d="M234.547,156.7a26.517,26.517,0,0,0,20.582,0,26.038,26.038,0,1,0-20.582,0Z" transform="translate(-115.857)"/>
      <path id="路径_305" data-name="路径 305" class="cls-1" d="M144.526,485.281a.36.36,0,0,0-.245.014c-.823.462-1.631.938-2.511,1.328a32.926,32.926,0,0,1-25.706-.058c-.837-.375-1.6-.837-2.4-1.27a.289.289,0,0,0-.245-.014,45.558,45.558,0,0,0-30.022,42.8V541.1a6.511,6.511,0,0,0,6.51,6.51h78.128a6.511,6.511,0,0,0,6.509-6.51v-13a45.538,45.538,0,0,0-30.022-42.81Z" transform="translate(0 -323.921)"/>
      <path id="路径_306" data-name="路径 306" class="cls-1" d="M563.71,132.738a32.456,32.456,0,0,1-10.219,23.527.3.3,0,0,0,.087.476,28.18,28.18,0,0,0,10.132,2.035A26.949,26.949,0,0,0,574,156.7a26.059,26.059,0,0,0-10.291-50,25.9,25.9,0,0,0-10.1,2.064.3.3,0,0,0-.087.476A32.342,32.342,0,0,1,563.71,132.738Z" transform="translate(-402.167)"/>
      <path id="路径_307" data-name="路径 307" class="cls-1" d="M652.392,485.1c-.866.476-1.7.981-2.627,1.386a33.317,33.317,0,0,1-10.464,2.382.289.289,0,0,0-.173.505,52.015,52.015,0,0,1,17.378,38.581v13.019a12.783,12.783,0,0,1-1.573,6.091.284.284,0,0,0,.26.419h20.857a6.511,6.511,0,0,0,6.509-6.51V527.953A45.592,45.592,0,0,0,652.392,485.1Z" transform="translate(-475.434 -323.784)"/>
    </g>
  </g>
</svg>
