<svg xmlns="http://www.w3.org/2000/svg" width="123.005" height="116.045" viewBox="0 0 123.005 116.045">
  <g id="系统工具" transform="translate(-883.061 -214.143)">
    <g id="组_12" data-name="组 12" transform="translate(883.061 137.759)">
      <path id="路径_51" data-name="路径 51" class="cls-1" d="M107.629,98.015H84.566V89.2c0-4.89-3.444-8.815-7.688-8.815H46.127c-4.244,0-7.688,3.926-7.688,8.815v8.815H15.376C6.888,98.015,0,105.866,0,115.576v63.291c0,9.711,6.888,17.562,15.376,17.562h92.254c8.487,0,15.376-7.851,15.376-17.562V115.576C123,105.866,116.117,98.015,107.629,98.015Zm-61.5-4.408A4.174,4.174,0,0,1,50,89.2H73.065a4.131,4.131,0,0,1,3.875,4.408v4.408H46.127ZM110.7,137.89a3.942,3.942,0,0,1-3.69,4.132H79.338v12.259c0,6.474-4.674,11.708-10.455,11.708H54.122c-5.781,0-10.455-5.234-10.455-11.708V142.022H15.991a3.942,3.942,0,0,1-3.69-4.132v-.138a3.942,3.942,0,0,1,3.69-4.132H44.343c1.476-4.408,5.289-7.576,9.779-7.576H68.883c4.49,0,8.3,3.168,9.779,7.576h28.353a3.942,3.942,0,0,1,3.69,4.132Z" transform="translate(0 -4)"/>
      <path id="路径_52" data-name="路径 52" class="cls-1" d="M445.88,505.807H428.567a3.617,3.617,0,0,1-3.607-3.607V484.887a3.617,3.617,0,0,1,3.607-3.607H445.88a3.617,3.617,0,0,1,3.607,3.607V502.2A3.617,3.617,0,0,1,445.88,505.807Z" transform="translate(-375.721 -350.398)"/>
    </g>
  </g>
</svg>
