<svg xmlns="http://www.w3.org/2000/svg" width="118.985" height="118.974" viewBox="0 0 118.985 118.974">
  <g id="系统管理" transform="translate(-880.773 -19.157)">
    <path id="路径_15" data-name="路径 15" class="cls-1" d="M176.948,131.776l-4.937-3.241a43.84,43.84,0,0,0,0-10.087l4.937-3.232a11.417,11.417,0,0,0,4.369-15.956l-6.731-11.028a12.83,12.83,0,0,0-16.782-4.4l-5.434,2.424a49.308,49.308,0,0,0-9.235-5.052l-.5-5.647c-.124-6.4-5.656-11.543-12.422-11.552H116.755c-6.775,0-12.3,5.15-12.422,11.552l-.488,5.647a49.315,49.315,0,0,0-9.235,5.061l-5.434-2.424a12.814,12.814,0,0,0-16.782,4.4L65.654,99.251a11.424,11.424,0,0,0,4.369,15.956l4.937,3.232a43.891,43.891,0,0,0,0,10.087l-4.937,3.241a11.405,11.405,0,0,0-4.369,15.947l6.731,11.028a12.83,12.83,0,0,0,16.782,4.4l5.434-2.424a49.774,49.774,0,0,0,9.235,5.052l.5,5.647c.124,6.411,5.647,11.543,12.422,11.552h13.461c6.775,0,12.3-5.15,12.422-11.552l.488-5.647a49.324,49.324,0,0,0,9.243-5.061l5.425,2.433a12.825,12.825,0,0,0,16.782-4.4l6.739-11.028a11.412,11.412,0,0,0-4.369-15.947Zm-53.463,14.6a22.882,22.882,0,1,1,22.882-22.882A22.909,22.909,0,0,1,123.485,146.374Z" transform="translate(816.78 -44.843)"/>
  </g>
</svg>
