<svg xmlns="http://www.w3.org/2000/svg" width="124.141" height="116.261" viewBox="0 0 124.141 116.261">
  <g id="系统监控" transform="translate(-1471.004 -21.483)">
    <path id="路径_19" data-name="路径 19" class="cls-1" d="M141.54,187.911a4.175,4.175,0,0,1,0,8.35H52.921a4.175,4.175,0,0,1,0-8.35ZM139.3,80a19.875,19.875,0,0,1,19.837,19.912v52.35A19.875,19.875,0,0,1,139.3,172.174H54.837A19.875,19.875,0,0,1,35,152.262V99.912A19.875,19.875,0,0,1,54.837,80Zm-12.551,21.25-.054.058-22.327,24.3-15.322-11.7L89,113.865a4,4,0,0,0-5.6.795l-.044.055L61.144,142.589l-.05.063a5.812,5.812,0,0,0,.231,7.2l.053.058.054.058a4.013,4.013,0,0,0,6.183-.269l.05-.062,19.649-24.665,15.1,11.536.051.039a3.971,3.971,0,0,0,5.38-.538l.045-.048,24.881-27.083.053-.059a5.809,5.809,0,0,0,.16-7.267,4.017,4.017,0,0,0-6.234-.307Z" transform="translate(1436.004 -58.517)"/>
  </g>
</svg>
