<svg xmlns="http://www.w3.org/2000/svg" width="123.494" height="116.116" viewBox="0 0 123.494 116.116">
  <g id="系统接口" transform="translate(-1336.006 -646.624)">
    <path id="减去_16" data-name="减去 16" class="cls-1" d="M86.96,143.233H31.318A9.355,9.355,0,0,1,22,133.9V121.458a9.353,9.353,0,0,1,9.324-9.333h45.6a37.742,37.742,0,0,0-.37,5.275,37.06,37.06,0,0,0,10.409,25.832ZM40.236,119.766h0a7.912,7.912,0,0,0,0,15.825h.005a7.912,7.912,0,0,0,0-15.825Zm38.922-16.094H31.318A9.354,9.354,0,0,1,22,94.339V81.895a9.354,9.354,0,0,1,9.324-9.332H124.5a9.353,9.353,0,0,1,9.318,9.332v4.213a37.144,37.144,0,0,0-54.661,17.564ZM40.232,80.2a7.912,7.912,0,0,0,0,15.825h.005A7.912,7.912,0,0,0,40.232,80.2ZM124.5,64.11H31.318A9.355,9.355,0,0,1,22,54.777V42.332A9.354,9.354,0,0,1,31.324,33H124.5a9.353,9.353,0,0,1,9.318,9.332V54.777A9.353,9.353,0,0,1,124.5,64.11ZM40.232,40.643a7.912,7.912,0,0,0,0,15.825h.005a7.912,7.912,0,0,0-.005-15.825Z" transform="translate(1314.006 613.623)"/>
    <path id="减去_17" data-name="减去 17" class="cls-2" d="M53.25,95a30.654,30.654,0,1,1,11.969-2.417A30.556,30.556,0,0,1,53.25,95ZM44.982,78.427h0l11,3.2a4.176,4.176,0,0,0,4-1l9.6-9.6-2.8-2.8,2.8-2.8a4.3,4.3,0,0,0-.2-5.8l-11.4-11.4a3.866,3.866,0,0,0-5.6,0l-2.8,2.8-2.8-2.8-9.6,9.6a4.176,4.176,0,0,0-1,4l3.2,11-2.4,2.4a1.937,1.937,0,0,0,0,2.8l2.8,2.8a1.934,1.934,0,0,0,2.8,0l2.4-2.4Zm17.4-14.6h0l-2.8-2.8,2.8-2.8,2.8,2.8-2.8,2.8Zm-5.8-5.6h0l-2.8-2.8,2.8-2.8,2.8,2.8-2.8,2.8Z" transform="translate(1375 667.24)"/>
  </g>
</svg>
