<svg xmlns="http://www.w3.org/2000/svg" width="90.243" height="120.227" viewBox="0 0 90.243 120.227">
  <g id="验收标准内容" transform="translate(-1637.689 -386.887)">
    <path id="减去_13" data-name="减去 13" class="cls-1" d="M99.734,153.227H29.515A7.523,7.523,0,0,1,22,145.713V40.514A7.523,7.523,0,0,1,29.515,33h75.214a7.523,7.523,0,0,1,7.514,7.514V55.543h-.014v32.2c-.96-.083-1.941-.125-2.918-.125a33.706,33.706,0,0,0-33.371,30.542H42.057a5.014,5.014,0,0,0,0,10.029h34.5a33.458,33.458,0,0,0,23.176,25.041ZM42.057,88.1a5.014,5.014,0,0,0,0,10.029h40.1A5.014,5.014,0,1,0,82.171,88.1Zm-.014-30.056a5.014,5.014,0,1,0,0,10.028H92.185a5.014,5.014,0,0,0,0-10.028Z" transform="translate(1615.69 353.887)"/>
  </g>
</svg>
