<svg xmlns="http://www.w3.org/2000/svg" width="123.456" height="123.456" viewBox="0 0 123.456 123.456">
  <g id="验收标准" transform="translate(-1331.184 -385.574)">
    <g id="组_26" data-name="组 26" transform="translate(1234.27 288.66)">
      <path id="路径_296" data-name="路径 296" class="cls-1" d="M422.128,438.22c-1.1-.549-2.195-1.372-3.566-1.92v-3.292h2.743v-3.841h-2.743v-4.938H415v4.938H411.7v3.841h3.018a48.818,48.818,0,0,1-3.292,7.956c.274,1.646.549,3.292.823,5.213A34.145,34.145,0,0,0,415,440.689v11.8h3.566V440.141c.823.549,1.372.823,1.646,1.372Zm1.646,0a60.364,60.364,0,0,1-3.567,9.328,16.785,16.785,0,0,1,3.292,1.372,64.255,64.255,0,0,0,3.566-9.6Zm-1.1-12.894h16.461v3.841H422.677Z" transform="translate(-267.327 -278.206)"/>
      <path id="路径_297" data-name="路径 297" class="cls-1" d="M158.642,96.914a61.728,61.728,0,1,0,61.728,61.728A61.821,61.821,0,0,0,158.642,96.914Zm0,99.588c-6.036,0-29.629-15.912-29.629-31l-.274-30.178h3.018a50.842,50.842,0,0,0,13.443-2.743,52.081,52.081,0,0,0,11.523-6.036l1.646-1.1,1.92,1.1a61.719,61.719,0,0,0,11.523,6.036,40.472,40.472,0,0,0,13.443,2.743h2.469L188,165.5C188.546,180.59,165.5,196.5,158.642,196.5Z" transform="translate(0 0)"/>
      <path id="路径_298" data-name="路径 298" class="cls-1" d="M495.912,480.914H477.257v3.841h7.407V495.18a1.455,1.455,0,0,1-1.646,1.646,10.291,10.291,0,0,1-2.743-.274q.411,1.646.823,4.115h4.39a2.91,2.91,0,0,0,3.292-3.292V485.029h7.407v-4.115Z" transform="translate(-323.279 -326.387)"/>
      <path id="路径_299" data-name="路径 299" class="cls-1" d="M559.543,520.412c1.1,2.743,2.195,5.761,3.292,9.328l3.567-1.372a69.166,69.166,0,0,0-3.567-9.053Z" transform="translate(-393.219 -359.026)"/>
    </g>
  </g>
</svg>
