<svg xmlns="http://www.w3.org/2000/svg" width="117.654" height="117.653" viewBox="0 0 117.654 117.653">
  <g id="验收标准类型" transform="translate(-1483.346 -389.482)">
    <g id="组_27" data-name="组 27" transform="translate(1448.699 354.392)">
      <path id="路径_296" data-name="路径 296" class="cls-1" d="M416.229,430.506c-.492-.246-.985-.615-1.6-.861v-1.477h1.231v-1.723h-1.231v-2.215h-1.6v2.215h-1.477v1.723h1.354a21.9,21.9,0,0,1-1.477,3.569c.123.738.246,1.477.369,2.338a15.321,15.321,0,0,0,1.231-2.462v5.293h1.6v-5.539c.369.246.615.369.738.615Zm.739,0a27.108,27.108,0,0,1-1.6,4.185,7.533,7.533,0,0,1,1.477.615,28.846,28.846,0,0,0,1.6-4.308Zm-.492-5.785h7.385v1.723h-7.385Z" transform="translate(-293.344 -305.283)"/>
      <path id="路径_297" data-name="路径 297" class="cls-1" d="M124.608,96.914A27.693,27.693,0,1,0,152.3,124.608,27.735,27.735,0,0,0,124.608,96.914Zm0,44.678c-2.708,0-13.293-7.139-13.293-13.908l-.123-13.539h1.354a22.809,22.809,0,0,0,6.031-1.231,23.366,23.366,0,0,0,5.169-2.708l.738-.492.862.492a27.691,27.691,0,0,0,5.169,2.708,18.158,18.158,0,0,0,6.031,1.231h1.108l.123,13.539C138.023,134.454,127.685,141.593,124.608,141.593Z" transform="translate(0 0)"/>
      <path id="路径_298" data-name="路径 298" class="cls-1" d="M485.626,480.914h-8.37v1.723h3.323v4.677a.653.653,0,0,1-.738.738,4.614,4.614,0,0,1-1.231-.123q.185.739.369,1.846h1.969a1.305,1.305,0,0,0,1.477-1.477V482.76h3.323v-1.846Z" transform="translate(-354.742 -358.153)"/>
      <path id="路径_299" data-name="路径 299" class="cls-1" d="M559.543,519.807c.492,1.231.985,2.585,1.477,4.185l1.6-.615a31,31,0,0,0-1.6-4.062Z" transform="translate(-431.489 -393.968)"/>
    </g>
    <path id="路径_301" data-name="路径 301" class="cls-1" d="M264.053,174.984c0,7.84-6.258,11.765-11.765,11.765H220.914c-7.2,0-11.773-5.454-11.773-12.715l.008-30.424c0-7.25,4.565-11.765,11.766-11.765h31.374c7.208.008,11.765,4.515,11.765,11.765v31.374ZM181.7,194.593H158.166c-7.2,0-11.766,5.454-11.766,12.7v30.436c0,7.25,4.565,11.765,11.766,11.765H189.54a11.892,11.892,0,0,0,11.765-11.765V206.359c0-7.257-4.565-11.765-11.765-11.765Zm-23.531-62.748c-7.254,0-11.766,4.561-11.766,11.765v31.374c0,7.235,4.519,11.765,11.766,11.765H189.54c7.254,0,11.765-4.561,11.765-11.765V143.61c.008-7.192-4.512-11.765-11.765-11.765Z" transform="translate(1336.946 257.637)"/>
  </g>
</svg>
