<svg xmlns="http://www.w3.org/2000/svg" width="105.188" height="121.667" viewBox="0 0 105.188 121.667">
  <g id="验收单位" transform="translate(-591.773 -19.157)">
    <path id="减去_3" data-name="减去 3" class="cls-1" d="M63.572,121.667H0V108.775H8.764V0H95.513V68.65a31.024,31.024,0,0,0-43.6,17.117H23.123V98.941H50.269a30.9,30.9,0,0,0,13.3,22.725ZM23.123,64.545V77.72H54.614V64.545Z" transform="translate(591.773 19.157)"/>
    <path id="减去_2" data-name="减去 2" class="cls-2" d="M23,46A23,23,0,0,1,6.737,6.737,23,23,0,1,1,39.263,39.263,22.849,22.849,0,0,1,23,46ZM14.658,10.454a4.209,4.209,0,0,0-4.2,4.2V31.024a4.209,4.209,0,0,0,4.2,4.2H31.024a4.129,4.129,0,0,0,4.091-4.318V14.658a4.209,4.209,0,0,0-4.205-4.2Zm10.8,21.251H18.41a.909.909,0,1,1,0-1.818h7.046a.835.835,0,0,1,.91.908A.9.9,0,0,1,25.455,31.705Zm-3.3-5.341h-.227a1.285,1.285,0,0,1-.91-.341l-.113-.114L16.25,21.478a1.363,1.363,0,0,1-.412-1.032,1.4,1.4,0,0,1,.525-1.014,1.725,1.725,0,0,1,1.2-.487,1.341,1.341,0,0,1,.961.373l3.523,3.3,6.933-6.477a1.276,1.276,0,0,1,.923-.373,1.963,1.963,0,0,1,1.236.488,1.4,1.4,0,0,1,.526,1.013,1.361,1.361,0,0,1-.412,1.031l-8.069,7.614-.113.114A1.285,1.285,0,0,1,22.159,26.365Z" transform="translate(650.461 92.745)"/>
  </g>
</svg>
