<svg xmlns="http://www.w3.org/2000/svg" width="107.21" height="122.205" viewBox="0 0 107.21 122.205">
  <g id="资料核查" transform="translate(-739.227 -386.199)">
    <g id="组_22" data-name="组 22" transform="translate(676.535 386.199)">
      <path id="路径_287" data-name="路径 287" class="cls-1" d="M157.152,107.336a23.188,23.188,0,1,1,3.606-4.081l9.142,8.13V10.914A10.914,10.914,0,0,0,159.019,0H73.605A10.914,10.914,0,0,0,62.691,10.914V111.291A10.914,10.914,0,0,0,73.605,122.2h85.414a10.882,10.882,0,0,0,9.174-5.062ZM98.027,22.366h55.614a2.847,2.847,0,1,1,0,5.663H98.027a2.847,2.847,0,1,1,0-5.663Zm0,30.053h54.855a2.847,2.847,0,1,1,0,5.663H98.027a2.847,2.847,0,0,1,0-5.663ZM86.8,85.888a2.847,2.847,0,0,1-2.847,2.847H77.465a2.847,2.847,0,0,1,0-5.694H83.95A2.847,2.847,0,0,1,86.8,85.888ZM83.95,58.081H77.465a2.847,2.847,0,0,1,0-5.663H83.95a2.847,2.847,0,1,1,0,5.663Zm0-30.053H77.465a2.847,2.847,0,0,1,0-5.663H83.95a2.847,2.847,0,1,1,0,5.663Zm25.023,60.707H98.027a2.847,2.847,0,0,1,0-5.663h10.946a2.847,2.847,0,1,1,0,5.663Z" transform="translate(0)"/>
      <path id="路径_288" data-name="路径 288" class="cls-1" d="M586.129,615.951m-18.728,0a18.728,18.728,0,1,0,18.728-18.728A18.728,18.728,0,0,0,567.4,615.951Z" transform="translate(-444.477 -525.95)"/>
    </g>
  </g>
</svg>
